<svg id="Capa_1" enable-background="new 0 0 512 512" height="36" viewBox="0 0 512 512" width="36" xmlns="http://www.w3.org/2000/svg"><g id="Snow_1_"><g><path d="m421 316h-330c-24.05 0-46.794-9.327-64.043-26.264-17.384-17.069-26.957-39.705-26.957-63.736s9.573-46.667 26.957-63.736c13.614-13.368 30.653-21.995 49.055-25.038-.008-.406-.012-.815-.012-1.226 0-66.168 53.832-120 120-120 24.538 0 48.119 7.387 68.194 21.363 14.131 9.838 25.864 22.443 34.586 37.044 14.08-8.733 30.32-13.407 47.22-13.407 44.886 0 82.202 33.026 88.922 76.056 18.81 2.88 36.243 11.581 50.121 25.208 17.384 17.069 26.957 39.705 26.957 63.736s-9.573 46.667-26.957 63.736c-17.249 16.937-39.993 26.264-64.043 26.264zm-330-150c-33.636 0-61 26.916-61 60s27.364 60 61 60h330c33.636 0 61-26.916 61-60s-27.364-60-61-60h-15v-15c0-33.084-26.916-60-60-60-15.766 0-30.68 6.12-41.995 17.233l-16.147 15.857-8.314-21.048c-13.69-34.651-46.481-57.042-83.544-57.042-49.626 0-90 40.374-90 90 0 3.548.557 7.358 1.146 11.391l2.687 18.609z"/></g><g><path d="m136 436c-24.813 0-45-20.187-45-45s20.187-45 45-45 45 20.187 45 45-20.187 45-45 45zm0-60c-8.271 0-15 6.729-15 15s6.729 15 15 15 15-6.729 15-15-6.729-15-15-15z"/></g><g><path d="m256 496c-24.813 0-45-20.187-45-45s20.187-45 45-45 45 20.187 45 45-20.187 45-45 45zm0-60c-8.271 0-15 6.729-15 15s6.729 15 15 15 15-6.729 15-15-6.729-15-15-15z"/></g><g><path d="m376 436c-24.813 0-45-20.187-45-45s20.187-45 45-45 45 20.187 45 45-20.187 45-45 45zm0-60c-8.271 0-15 6.729-15 15s6.729 15 15 15 15-6.729 15-15-6.729-15-15-15z"/></g></g></svg>